<svg xmlns="http://www.w3.org/2000/svg" viewBox="0 0 512 512"><path d="M350.688 496.97H66.121V126.245a7.515 7.515 0 10-15.03 0v373.23c0 6.907 5.619 12.525 12.525 12.525h287.072a7.516 7.516 0 000-15.03zM458.782 67.951L394.906 2.276A7.515 7.515 0 00389.519 0H63.616C56.71 0 51.092 5.62 51.091 12.526v58.613a7.515 7.515 0 1015.03 0V15.031h320.224l59.536 61.212V496.97h-42.59a7.515 7.515 0 100 15.03h45.094c6.907 0 12.525-5.618 12.525-12.524V73.19a7.511 7.511 0 00-2.128-5.239z"/><path d="M458.781 67.951L394.905 2.276a7.515 7.515 0 00-12.901 5.24V73.19a7.515 7.515 0 007.515 7.515h63.876a7.514 7.514 0 005.386-12.754zm-61.747-2.276V26.019l38.569 39.656h-38.569zM290.78 39.899H109.714c-6.907 0-12.525 5.619-12.525 12.525v41.533c0 6.907 5.619 12.525 12.525 12.525H290.78c6.906 0 12.525-5.619 12.525-12.524V52.423c0-6.907-5.619-12.524-12.525-12.524zm-2.505 51.552H112.219V54.928h176.056v36.523zM172.247 145.811a7.516 7.516 0 00-10.53 1.436l-33.203 43.688-9.972-8.726a7.515 7.515 0 00-9.897 11.311l16.031 14.027a7.52 7.52 0 005.707 1.822 7.517 7.517 0 005.225-2.93l38.075-50.098a7.515 7.515 0 00-1.436-10.53zM398.409 144.277H209.136a7.515 7.515 0 100 15.03h189.273a7.515 7.515 0 100-15.03zM332.021 169.326H209.136a7.515 7.515 0 100 15.03h122.885a7.515 7.515 0 100-15.03zM360.076 194.376h-150.94a7.515 7.515 0 100 15.03h150.94a7.515 7.515 0 100-15.03zM172.247 248.014a7.516 7.516 0 00-10.53 1.436l-33.203 43.688-9.972-8.726a7.515 7.515 0 00-9.897 11.311l16.031 14.027a7.52 7.52 0 005.707 1.822 7.517 7.517 0 005.225-2.93l38.075-50.098a7.516 7.516 0 00-1.436-10.53zM398.409 246.481H209.136a7.515 7.515 0 100 15.03h189.273a7.515 7.515 0 100-15.03zM332.021 271.53H209.136a7.515 7.515 0 100 15.03h122.885a7.515 7.515 0 100-15.03zM360.076 296.579h-150.94a7.515 7.515 0 100 15.03h150.94a7.515 7.515 0 100-15.03zM398.409 348.685H209.136a7.515 7.515 0 100 15.03h189.273a7.516 7.516 0 000-15.03zM332.021 373.734H209.136a7.515 7.515 0 100 15.03h122.885a7.515 7.515 0 100-15.03zM360.076 398.783h-150.94a7.515 7.515 0 100 15.03h150.94a7.515 7.515 0 100-15.03zM158.681 348.685h-40.079c-6.907 0-12.525 5.619-12.525 12.525v40.078c0 6.907 5.619 12.525 12.525 12.525h40.079c6.907 0 12.525-5.618 12.525-12.524V361.21c0-6.907-5.619-12.525-12.525-12.525zm-2.504 50.099h-35.069v-35.069h35.069v35.069z"/></svg>