<svg xmlns="http://www.w3.org/2000/svg" height="766pt" viewBox="0 -4 766.251 766" width="766pt"><path d="M395.563 262.66c0-5.043-3.043-9.598-7.7-11.527a12.483 12.483 0 00-13.605 2.707l-49.906 49.914 17.64 17.64 28.613-28.613v132.09h-24.957v24.957h74.868v-24.957h-24.954zm0 0"/><path d="M645.121 350.008c0-144.723-117.316-262.04-262.039-262.04-144.723 0-262.035 117.317-262.035 262.04 0 144.71 117.312 262.031 262.035 262.031 144.648-.16 261.871-117.383 262.04-262.031zM383.082 587.09c-130.937 0-237.078-106.149-237.078-237.082 0-130.938 106.14-237.082 237.078-237.082S620.164 219.07 620.164 350.008c-.148 130.87-106.203 236.933-237.082 237.082zm0 0"/><path d="M383.082 150.36c-110.258 0-199.644 89.39-199.644 199.648s89.386 199.644 199.644 199.644c110.258 0 199.648-89.386 199.648-199.644-.125-110.211-89.44-199.516-199.648-199.649zm0 374.335c-96.477 0-174.687-78.21-174.687-174.687 0-96.48 78.21-174.692 174.687-174.692 96.48 0 174.691 78.211 174.691 174.692-.101 96.433-78.253 174.586-174.691 174.687zm0 0"/><path d="M762.5 613.188l-81.805-81.704a33.834 33.834 0 005.325-6.535 60.711 60.711 0 002.496-40.851 55.823 55.823 0 01-1.055-23.313 55.278 55.278 0 0115.523-16.707 61.136 61.136 0 0024.66-33.336 60.281 60.281 0 00-11.601-38.91 56.3 56.3 0 01-9.035-21.824 56.157 56.157 0 019.07-21.824 60.313 60.313 0 0011.61-38.922 61.152 61.152 0 00-24.672-33.325 55.455 55.455 0 01-15.473-16.71 55.741 55.741 0 011.059-23.297 60.74 60.74 0 00-2.489-40.864 61.04 61.04 0 00-34.383-22.644 55.183 55.183 0 01-20.511-10.535 55.61 55.61 0 01-6.875-22.098 60.937 60.937 0 00-16.36-37.695 60.785 60.785 0 00-39.867-9.586 55.77 55.77 0 01-23.035-2.992 55.457 55.457 0 01-13.852-18.297 61.082 61.082 0 00-28.382-30.02 60.462 60.462 0 00-40.54 4.645 55.965 55.965 0 01-22.886 5.129 54.652 54.652 0 01-19.016-12.309A61.415 61.415 0 00383.082.125a61.455 61.455 0 00-37.234 18.54 54.652 54.652 0 01-19.016 12.308 55.53 55.53 0 01-22.883-5.13A60.477 60.477 0 00263.4 21.2a61.124 61.124 0 00-28.38 30.02 55.352 55.352 0 01-13.851 18.297 55.743 55.743 0 01-23.031 2.992 60.83 60.83 0 00-39.871 9.586 60.894 60.894 0 00-16.36 37.695 55.435 55.435 0 01-6.86 22.082 55.315 55.315 0 01-20.515 10.535 60.955 60.955 0 00-34.383 22.66 60.661 60.661 0 00-2.503 40.852 55.724 55.724 0 01.976 23.309 55.32 55.32 0 01-15.476 16.71 61.22 61.22 0 00-24.668 33.325 60.476 60.476 0 0011.597 38.922 56.07 56.07 0 019.082 21.824 56.193 56.193 0 01-9.082 21.824 60.45 60.45 0 00-11.597 38.91 61.205 61.205 0 0024.668 33.336 55.215 55.215 0 0115.476 16.707 55.68 55.68 0 01-1.058 23.297 60.779 60.779 0 002.492 40.867 33.54 33.54 0 005.332 6.551L3.664 613.188a12.487 12.487 0 00-3.25 12.03 12.485 12.485 0 008.793 8.845l90.207 24.57 24.566 90.203a12.465 12.465 0 008.832 8.738 13.05 13.05 0 003.208.406c3.312 0 6.484-1.316 8.824-3.656l96.078-96.011a47.573 47.573 0 0022.55 20.445 60.557 60.557 0 0040.54-4.633 54.834 54.834 0 0122.883-5.133 54.703 54.703 0 0119.02 12.301 61.507 61.507 0 0037.167 18.598 61.398 61.398 0 0037.23-18.551 54.745 54.745 0 0119.02-12.297 54.998 54.998 0 0122.883 5.129 60.655 60.655 0 0040.555 4.644 47.68 47.68 0 0022.562-20.457l96.078 96.012a12.485 12.485 0 008.824 3.66c1.078 0 2.157-.14 3.203-.41a12.471 12.471 0 008.836-8.734l24.575-90.203 90.199-24.567a12.488 12.488 0 008.789-8.84 12.513 12.513 0 00-3.246-12.043zM142.406 721.523l-20.797-76.332a12.488 12.488 0 00-8.734-8.73l-76.34-20.824 70.887-70.79c2.383.938 4.777 1.887 7.101 2.747a55.292 55.292 0 0120.512 10.531 55.503 55.503 0 016.871 22.098 60.968 60.968 0 0016.36 37.695 60.785 60.785 0 0039.933 9.582 55.728 55.728 0 0123.031 2.996 22.775 22.775 0 016.102 6.16zm367.215-85.336c-4.988 8.47-10.105 17.231-15.41 19.172a46.447 46.447 0 01-23.711-4.714 71.281 71.281 0 00-35.531-6.239 69.614 69.614 0 00-30.598 17.645c-7.633 6.312-15.535 12.828-21.34 12.828-5.8 0-13.722-6.516-21.336-12.828a69.551 69.551 0 00-30.547-17.567 37.837 37.837 0 00-6.671-.566 88.618 88.618 0 00-28.864 6.75 46.655 46.655 0 01-23.644 4.727c-5.317-1.95-10.461-10.715-15.426-19.184a69.857 69.857 0 00-22.86-27.285 70.55 70.55 0 00-35.312-6.356c-8.203.903-16.5-.39-24.043-3.742a46.775 46.775 0 01-7.871-23.113 70.502 70.502 0 00-12.32-33.621 69.997 69.997 0 00-30.934-17.871c-8.73-3.258-18.719-6.942-21.469-11.766a46.89 46.89 0 01.496-24.262 70.724 70.724 0 00-.125-35.945 69.93 69.93 0 00-22.765-27.137c-7.492-6.406-15.293-13.015-16.227-18.718a46.73 46.73 0 018.735-22.31 71.274 71.274 0 0012.265-34.077 71.273 71.273 0 00-12.316-34.117 46.816 46.816 0 01-8.734-22.309c.984-5.64 8.734-12.25 16.218-18.719a69.833 69.833 0 0022.774-27.14 70.739 70.739 0 00.125-35.95 46.777 46.777 0 01-.485-24.253c2.805-4.844 12.73-8.524 21.485-11.786a70.19 70.19 0 0030.922-17.859 70.384 70.384 0 0012.3-33.625 46.947 46.947 0 017.875-23.11 46.74 46.74 0 0124.055-3.738 70.58 70.58 0 0035.3-6.351 69.956 69.956 0 0022.86-27.29c4.992-8.476 10.113-17.234 15.41-19.175a46.332 46.332 0 0123.711 4.71 70.85 70.85 0 0035.535 6.243 69.466 69.466 0 0030.594-17.633c7.613-6.312 15.54-12.824 21.34-12.824 5.797 0 13.73 6.512 21.336 12.824a69.507 69.507 0 0030.602 17.621 71.281 71.281 0 0035.53-6.238 46.306 46.306 0 0123.712-4.719c5.312 1.95 10.457 10.707 15.422 19.184a70.012 70.012 0 0022.859 27.289 70.715 70.715 0 0035.312 6.348c8.204-.895 16.5.394 24.043 3.742a46.848 46.848 0 017.88 23.11 70.383 70.383 0 0012.312 33.69 70.098 70.098 0 0030.933 17.872c8.735 3.25 18.72 6.933 21.48 11.761A46.944 46.944 0 01664 211.82a70.726 70.726 0 00.121 35.957 69.92 69.92 0 0022.777 27.137c7.489 6.402 15.286 13.012 16.215 18.719a46.845 46.845 0 01-8.726 22.308 71.3 71.3 0 00-12.332 34.067 71.269 71.269 0 0012.312 34.11 46.795 46.795 0 018.738 22.316c-.988 5.64-8.738 12.25-16.222 18.71a69.923 69.923 0 00-22.77 27.137 70.726 70.726 0 00-.125 35.957 46.86 46.86 0 01.48 24.254c-2.8 4.84-12.726 8.524-21.48 11.778a70.208 70.208 0 00-30.922 17.87 70.3 70.3 0 00-12.3 33.614 47.003 47.003 0 01-7.88 23.11 46.696 46.696 0 01-24.054 3.741 70.588 70.588 0 00-35.3 6.352 69.975 69.975 0 00-22.91 27.23zm143.7.25a12.479 12.479 0 00-8.739 8.731l-20.8 76.332-84.848-84.852a22.721 22.721 0 016.101-6.16 55.693 55.693 0 0123.035-3 60.817 60.817 0 0039.926-9.586 60.846 60.846 0 0016.356-37.695 55.633 55.633 0 016.867-22.082 55.555 55.555 0 0120.511-10.531c2.336-.86 4.735-1.809 7.114-2.762l70.886 70.793zm0 0"/></svg>