<svg xmlns="http://www.w3.org/2000/svg" viewBox="0 0 345.628 345.628"><path d="M319.001 345.628a8.003 8.003 0 01-7.416-4.994l-3.925-9.674c-13.417-33.055-29.202-47.158-52.782-47.158h-30c-9.103 0-16.931 2.116-23.933 6.469a8 8 0 01-11.018-2.57 8 8 0 012.57-11.018c9.479-5.893 20.373-8.881 32.379-8.881h30c39.811 0 57.652 32.611 67.609 57.142l3.925 9.675a8 8 0 01-7.409 11.009zm-134.126 0a8.003 8.003 0 01-7.416-4.994l-3.925-9.674c-13.415-33.055-29.2-47.158-52.782-47.158H90.751c-23.582 0-39.368 14.104-52.783 47.159l-3.925 9.673a8 8 0 01-14.826-6.016l3.925-9.674c9.956-24.531 27.796-57.143 67.609-57.143h30c39.815 0 57.655 32.611 67.61 57.142l3.925 9.675a8 8 0 01-7.411 11.01zm54.999-93.244c-24.764 0-44.91-20.147-44.91-44.912 0-20.389 13.656-37.648 32.302-43.11.1-.033.2-.063.302-.093a44.994 44.994 0 0112.307-1.71c22.9 0 41.916 16.941 44.596 39.558.21 1.757.317 3.543.317 5.355-.001 24.764-20.148 44.912-44.914 44.912zm-15.769-69.135c-7.905 5.165-13.141 14.095-13.141 24.223 0 15.942 12.969 28.912 28.91 28.912 13.994 0 25.697-9.992 28.35-23.216a45.77 45.77 0 01-1.739.033c-19.519 0-36.216-12.311-42.38-29.952zm15.328-4.687c4.14 11.011 14.721 18.639 27.052 18.639.14 0 .278-.001.417-.003-4.203-11.015-14.978-18.795-27.469-18.636zM105.75 252.384c-24.764 0-44.912-20.147-44.912-44.912 0-24.712 20.062-44.826 44.754-44.912l.34-.001c23.2 0 42.413 17.39 44.691 40.451a8.04 8.04 0 01-.035 1.876c.049.855.074 1.719.074 2.586 0 24.764-20.148 44.912-44.912 44.912zm-15.622-69.231c-7.989 5.149-13.29 14.127-13.29 24.318 0 15.942 12.97 28.912 28.912 28.912 13.99 0 25.692-9.989 28.347-23.209-.518.018-1.037.026-1.556.026-19.554.001-36.276-12.355-42.413-30.047zm15.361-4.591c4.14 11.011 14.721 18.64 27.052 18.64l.236-.001c-4.151-10.886-14.701-18.641-27.027-18.641-.087.001-.174 0-.261.002zm129.856-30.032a7.993 7.993 0 01-6.669-3.57c-10.763-16.182-23.746-23.718-40.859-23.718h-30.003c-17.114 0-30.098 7.536-40.861 23.718a8 8 0 01-13.322-8.862c13.619-20.475 31.849-30.856 54.183-30.856h29.999c22.337 0 40.566 10.382 54.186 30.856a8 8 0 01-6.654 12.432zm-62.532-58.705c-24.763 0-44.91-20.147-44.91-44.912C127.903 20.147 148.05 0 172.813 0h.182c23.199 0 42.413 17.39 44.692 40.45a8.049 8.049 0 01-.034 1.877c.049.855.073 1.719.073 2.586 0 24.765-20.148 44.912-44.913 44.912zm-15.621-69.231c-7.988 5.15-13.289 14.128-13.289 24.319 0 15.942 12.969 28.912 28.91 28.912 13.992 0 25.694-9.989 28.349-23.21-.519.018-1.038.026-1.559.026-19.553.001-36.275-12.356-42.411-30.047zm15.361-4.591c4.139 11.011 14.719 18.639 27.049 18.639l.238-.001C195.699 23.78 185.192 16.038 172.904 16l-.351.003z"/></svg>